HIERARCHY
ROOT Hips
{
	OFFSET -14.64140 90.27770 -84.91600
	CHANNELS 6 Xposition Yposition Zposition Zrotation Xrotation Yrotation
	JOINT Spine
	{
		OFFSET 0.00000 13.20850 -1.60436
		CHANNELS 3 Zrotation Xrotation Yrotation
		JOINT Spine1
		{
			OFFSET 0.00000 8.61716 0.00000
			CHANNELS 3 Zrotation Xrotation Yrotation
			JOINT Spine2
			{
				OFFSET 0.00000 8.61717 0.00000
				CHANNELS 3 Zrotation Xrotation Yrotation
				JOINT Spine3
				{
					OFFSET 0.00000 8.61717 0.00000
					CHANNELS 3 Zrotation Xrotation Yrotation
					JOINT Neck
					{
						OFFSET 0.00000 11.07920 1.10792
						CHANNELS 3 Zrotation Xrotation Yrotation
						JOINT Neck1
						{
							OFFSET 0.00000 7.08032 0.00000
							CHANNELS 3 Zrotation Xrotation Yrotation
							JOINT Head
							{
								OFFSET 0.00000 7.08031 0.00000
								CHANNELS 3 Zrotation Xrotation Yrotation
								End site
								{
									OFFSET 0.00000 0.00000 0.00000
								}
							}
						}
					}
					JOINT RightShoulder
					{
						OFFSET -0.01000 7.91373 5.19711
						CHANNELS 3 Zrotation Xrotation Yrotation
						JOINT RightArm
						{
							OFFSET -18.41580 0.00000 0.00000
							CHANNELS 3 Zrotation Xrotation Yrotation
							JOINT RightForeArm
							{
								OFFSET -29.11090 0.00000 0.00000
								CHANNELS 3 Zrotation Xrotation Yrotation
								JOINT RightHand
								{
									OFFSET -24.65040 0.00000 0.00000
									CHANNELS 3 Zrotation Xrotation Yrotation
									JOINT RightHandThumb1
									{
										OFFSET -5.35114 -0.85590 3.97906
										CHANNELS 3 Zrotation Xrotation Yrotation
										JOINT RightHandThumb2
										{
											OFFSET -4.52789 0.00000 0.00000
											CHANNELS 3 Zrotation Xrotation Yrotation
											JOINT RightHandThumb3
											{
												OFFSET -2.46976 0.00000 0.00000
												CHANNELS 3 Zrotation Xrotation Yrotation
												End site
												{
													OFFSET 0.00000 0.00000 0.00000
												}
											}
										}
									}
									JOINT RightHandIndex1
									{
										OFFSET -14.26970 0.00000 2.88139
										CHANNELS 3 Zrotation Xrotation Yrotation
										JOINT RightHandIndex2
										{
											OFFSET -5.48836 0.00000 0.00000
											CHANNELS 3 Zrotation Xrotation Yrotation
											JOINT RightHandIndex3
											{
												OFFSET -3.01859 0.00000 0.00000
												CHANNELS 3 Zrotation Xrotation Yrotation
												End site
												{
													OFFSET 0.00000 0.00000 0.00000
												}
											}
										}
									}
									JOINT RightHandMiddle1
									{
										OFFSET -14.26970 0.00000 -0.09147
										CHANNELS 3 Zrotation Xrotation Yrotation
										JOINT RightHandMiddle2
										{
											OFFSET -6.17441 0.00000 0.00000
											CHANNELS 3 Zrotation Xrotation Yrotation
											JOINT RightHandMiddle3
											{
												OFFSET -3.56743 0.00000 0.00000
												CHANNELS 3 Zrotation Xrotation Yrotation
												End site
												{
													OFFSET 0.00000 0.00000 0.00000
												}
											}
										}
									}
									JOINT RightHandRing1
									{
										OFFSET -12.69180 0.00000 -3.06433
										CHANNELS 3 Zrotation Xrotation Yrotation
										JOINT RightHandRing2
										{
											OFFSET -5.62556 0.00000 0.00000
											CHANNELS 3 Zrotation Xrotation Yrotation
											JOINT RightHandRing3
											{
												OFFSET -3.56744 0.00000 0.00000
												CHANNELS 3 Zrotation Xrotation Yrotation
												End site
												{
													OFFSET 0.00000 0.00000 0.00000
												}
											}
										}
									}
									JOINT RightHandPinky1
									{
										OFFSET -11.11390 0.00000 -6.03719
										CHANNELS 3 Zrotation Xrotation Yrotation
										JOINT RightHandPinky2
										{
											OFFSET -4.52789 0.00000 0.00000
											CHANNELS 3 Zrotation Xrotation Yrotation
											JOINT RightHandPinky3
											{
												OFFSET -2.46976 0.00000 0.00000
												CHANNELS 3 Zrotation Xrotation Yrotation
												End site
												{
													OFFSET 0.00000 0.00000 0.00000
												}
											}
										}
									}
								}
							}
						}
					}
					JOINT LeftShoulder
					{
						OFFSET 0.01000 7.91373 5.19711
						CHANNELS 3 Zrotation Xrotation Yrotation
						JOINT LeftArm
						{
							OFFSET 18.41580 0.00000 0.00000
							CHANNELS 3 Zrotation Xrotation Yrotation
							JOINT LeftForeArm
							{
								OFFSET 29.11090 0.00000 0.00000
								CHANNELS 3 Zrotation Xrotation Yrotation
								JOINT LeftHand
								{
									OFFSET 24.65040 0.00000 0.00000
									CHANNELS 3 Zrotation Xrotation Yrotation
									JOINT LeftHandThumb1
									{
										OFFSET 5.35114 -0.85590 3.97906
										CHANNELS 3 Zrotation Xrotation Yrotation
										JOINT LeftHandThumb2
										{
											OFFSET 4.52789 0.00000 0.00000
											CHANNELS 3 Zrotation Xrotation Yrotation
											JOINT LeftHandThumb3
											{
												OFFSET 2.46977 0.00000 0.00000
												CHANNELS 3 Zrotation Xrotation Yrotation
												End site
												{
													OFFSET 0.00000 0.00000 0.00000
												}
											}
										}
									}
									JOINT LeftHandIndex1
									{
										OFFSET 14.26970 0.00000 2.88139
										CHANNELS 3 Zrotation Xrotation Yrotation
										JOINT LeftHandIndex2
										{
											OFFSET 5.48836 0.00000 0.00000
											CHANNELS 3 Zrotation Xrotation Yrotation
											JOINT LeftHandIndex3
											{
												OFFSET 3.01859 0.00000 0.00000
												CHANNELS 3 Zrotation Xrotation Yrotation
												End site
												{
													OFFSET 0.00000 0.00000 0.00000
												}
											}
										}
									}
									JOINT LeftHandMiddle1
									{
										OFFSET 14.26970 0.00000 -0.09147
										CHANNELS 3 Zrotation Xrotation Yrotation
										JOINT LeftHandMiddle2
										{
											OFFSET 6.17440 0.00000 0.00000
											CHANNELS 3 Zrotation Xrotation Yrotation
											JOINT LeftHandMiddle3
											{
												OFFSET 3.56744 0.00000 0.00000
												CHANNELS 3 Zrotation Xrotation Yrotation
												End site
												{
													OFFSET 0.00000 0.00000 0.00000
												}
											}
										}
									}
									JOINT LeftHandRing1
									{
										OFFSET 12.69180 0.00000 -3.06433
										CHANNELS 3 Zrotation Xrotation Yrotation
										JOINT LeftHandRing2
										{
											OFFSET 5.62556 0.00000 0.00000
											CHANNELS 3 Zrotation Xrotation Yrotation
											JOINT LeftHandRing3
											{
												OFFSET 3.56744 0.00000 0.00000
												CHANNELS 3 Zrotation Xrotation Yrotation
												End site
												{
													OFFSET 0.00000 0.00000 0.00000
												}
											}
										}
									}
									JOINT LeftHandPinky1
									{
										OFFSET 11.11390 0.00000 -6.03719
										CHANNELS 3 Zrotation Xrotation Yrotation
										JOINT LeftHandPinky2
										{
											OFFSET 4.52789 0.00000 0.00000
											CHANNELS 3 Zrotation Xrotation Yrotation
											JOINT LeftHandPinky3
											{
												OFFSET 2.46976 0.00000 0.00000
												CHANNELS 3 Zrotation Xrotation Yrotation
												End site
												{
													OFFSET 0.00000 0.00000 0.00000
												}
											}
										}
									}
								}
							}
						}
					}
					JOINT pCube4
					{
						OFFSET 0.00000 10.91090 1.10792
						CHANNELS 3 Zrotation Xrotation Yrotation
						End site
						{
							OFFSET 0.00000 0.00000 0.00000
						}
					}
				}
			}
		}
	}
	JOINT RightUpLeg
	{
		OFFSET -9.98441 0.00000 0.00000
		CHANNELS 3 Zrotation Xrotation Yrotation
		JOINT RightLeg
		{
			OFFSET 0.00000 -42.11790 0.00000
			CHANNELS 3 Zrotation Xrotation Yrotation
			JOINT RightFoot
			{
				OFFSET 0.00000 -45.00020 -0.00001
				CHANNELS 3 Zrotation Xrotation Yrotation
				JOINT RightForeFoot
				{
					OFFSET 0.00000 -3.74820 0.00000
					CHANNELS 3 Zrotation Xrotation Yrotation
					JOINT RightToeBase
					{
						OFFSET 0.00000 0.06325 14.43120
						CHANNELS 3 Zrotation Xrotation Yrotation
						End site
						{
							OFFSET 0.00000 0.00000 0.00000
						}
					}
				}
			}
		}
	}
	JOINT LeftUpLeg
	{
		OFFSET 9.98441 0.00000 0.00000
		CHANNELS 3 Zrotation Xrotation Yrotation
		JOINT LeftLeg
		{
			OFFSET 0.00000 -42.11800 0.00000
			CHANNELS 3 Zrotation Xrotation Yrotation
			JOINT LeftFoot
			{
				OFFSET 0.00000 -45.00070 0.00000
				CHANNELS 3 Zrotation Xrotation Yrotation
				JOINT LeftForeFoot
				{
					OFFSET 0.00000 -3.74824 0.00000
					CHANNELS 3 Zrotation Xrotation Yrotation
					JOINT LeftToeBase
					{
						OFFSET 0.00000 0.06325 14.43110
						CHANNELS 3 Zrotation Xrotation Yrotation
						End site
						{
							OFFSET 0.00000 0.00000 0.00000
						}
					}
				}
			}
		}
	}
}
MOTION
Frames: 4
Frame Time: 0.050000
0.012604230907893883 0.012838421313897118 -0.03954087677336612 -0.021976602895251083 -0.012611229115493583 0.04772956392828684 -2.1964681355026223 1.0057741927685238 -0.8642661385565285 -1.1613355867699948 3.906433444418083 0.4037156584940665 -1.1011290393596838 -1.9069850696424144 -1.9937706310875782 -0.01025701616805283 0.5278676128875744 -0.9354091769784749 -1.0327187563930353 13.414461318794125 2.608583452774806 0.0025176062867829016 -0.18067431525760658 5.5635169550788355 -0.6793744061960632 -15.396887100398303 0.46389725058807596 -4.909006656703924 1.6997202058663383 -15.989716640906803 73.07981274441839 16.666643289023376 -4.681681290198346 4.941603590062963 -1.9835224590077634 43.021196403567636 20.22135021021698 -0.15305503802207882 -2.5834973711602784 4.498208884283986 -0.11262969509085358 -1.6005237698907087 0.02611315074505812 0.03261306341953852 -56.279060301905126 -0.025346572400265038 -0.02627589734183344 -56.2579507076417 -38.72371769751913 -0.048230969964274936 0.04142063348977253 -0.03773559443345609 0.047649702495087785 -0.008149400393962091 0.017075393947089762 -0.025489369191458413 -0.028681148337482223 -36.6680867056655 -0.004516233838749014 -0.027839137600916303 -0.023160144484100226 -0.021350586167691674 -0.0433792097507778 -0.030320002729664123 -0.003229579244553295 0.04141248244260716 -19.77497227728423 -0.020667522562017718 0.0366561037301267 -0.03389423320896725 0.016480903517294962 0.04458575150535109 0.008438144063652796 0.02187425441203445 -0.01840424931339988 24.062678851408826 0.040111377672238324 -0.013713511460849986 28.88745158106286 -0.04786456927689261 -0.02914085822037196 28.889439789035134 0.010200004555585776 0.008425301470685213 8.246074457856217 1.7666628169772203 14.175904453230794 -69.08232035265483 18.485037957495756 -10.81381505269755 -1.6880521350007827 -17.69717210687136 -61.90023261556163 -6.581172589041651 -0.5200841536793732 1.474162046440346 -0.5158439950206274 0.08837492851847227 -8.127242891034532 0.04652042939140472 -0.0292696664863288 44.53859755632781 -0.04599339914941697 -0.028260584038640423 44.57442028163395 12.447111887638167 0.010343371544973575 -0.012818656997581994 -0.010341547175286176 -0.042884093530779106 -0.00034228926465565586 -0.025011115459869778 -0.009906731394236567 -0.0010789166357623667 11.067624381488466 -0.0046304918045638015 0.039801236622139045 0.005060668585690628 0.010801526362580017 0.028705098541754424 0.02108011892746113 0.004896977871721172 -0.009448255158606584 4.788823388899349 0.009051254202027872 -0.04368622768008809 0.0029749869746820696 0.024488278437750467 -0.025284624849038456 0.013751906582648408 -0.016537900554057433 -0.019961923096393386 -5.557137569927588 0.03755235525774141 -0.03735715790201298 -6.735379345295354 -0.022066639342095934 -0.010235011748917786 -6.752026499309902 0.0068703368757166835 -0.007532172254679531 -0.040786789391179745 -0.028175892785863556 -0.004266935607581726 8.047437456525902 3.489462734692415 -19.218966140562664 0.016717616959531178 10.438933374658326 -0.021818516517537755 -5.604389069779274 -15.66197381441518 3.218895442387712 -0.039175365493356075 0.034861195223017775 -0.004792542624927644 -0.007319406347657734 4.723872564208139 -0.02268586644513747 12.424538897776285 -8.240704551545752 6.879193867319949 -0.01062699692564255 46.3721824833479 -0.015704693122720895 -4.358907605360883 -14.778845683304947 -3.809719822884612 0.01528084523317724 -0.012732422978241014 -0.010054601491117508 0.01696267972887029 -10.759613962017152 0.027167389213969717 
0.04151666966294837 0.037950528985282055 -0.0017925425790548948 0.030628998837838664 0.005713231718336074 0.04644765409816391 -2.2490274817679317 1.0537183475445675 -0.8166741384429624 -1.1799817736083211 3.9554808994447743 0.3438044061030322 -1.1170113430427577 -1.9274310151074403 -1.8135787087442505 -0.04665000116233149 0.5814769098026176 -0.8479623158839888 -1.107401756275426 13.23893695972596 2.8646749237911164 0.01009324338818059 -0.26489107734907996 6.1271539643131225 -0.7738022220779581 -15.500440926614289 0.48038051873386 -4.63962276073076 1.6305806854845355 -16.063868135706837 73.13782779845478 17.16327794247513 -5.622560354661764 5.222273206995618 -2.059877472005722 42.34776433313095 20.244528325069606 -0.08868196889373978 -2.66758696575914 4.556660192575481 -0.13607174826929508 -1.5882221101939633 0.02924380304030838 0.043487738752555134 -56.25115382548008 0.04170456766443445 -0.023075568708971338 -56.21208539021399 -38.750327606546136 -0.007414357947918816 0.009035799789564357 -0.01163279476367305 -0.04204869402398712 -0.045758238283382956 0.045321594998689256 -0.023085341797896296 -0.010792146865113594 -36.73119606617941 -0.04929931210494353 0.011880524885895643 -0.02150048758322406 0.04648676725800051 -0.006938582979678493 0.0026045005249169025 -0.024177574707928036 -0.046866156564470726 -19.785318145709404 -0.04704041430210082 -0.016152034821733142 -0.009155187209891849 0.014724931983103456 0.04827835688543974 -0.02795414139190629 -0.009486816686107997 0.03877667661901597 24.095413015388882 -0.009409792560607583 0.009166156532586288 28.866698637109646 -0.009667949927581269 0.033240004601075464 28.89713803834655 0.032476422627852865 -0.036024337800335406 7.875993232923571 1.6340081244511209 14.304156052101035 -70.14488700570992 19.328430465466056 -8.821186405462814 -2.0396527784128184 -17.32707290413764 -61.82530682451698 -7.091353039734675 -0.7287425069260929 1.5894477464198025 -0.46212114714899905 0.026845010092740977 -8.152124656665325 0.036806595114446165 -0.0031520274337721406 44.55323903852018 0.01412418913764724 6.429384023066447e-05 44.56968485176327 12.488387017388051 0.041931846988085955 0.00993125356364385 -0.004303261513104121 0.03334795531224753 0.016671716762405763 -0.010237979798826695 0.04481795223102115 0.035136094905625026 11.154037264239292 -0.035450557485010394 0.005309883926455856 0.0005843160243748231 0.00029462396063295143 -0.039638604809014176 0.0012142504151508146 0.048721239069031703 0.03349448800728032 4.778630930424702 0.005572283676784548 0.0024829878028960165 0.026091307843532602 -0.011162661301289315 -0.012455678104904418 0.010722089184679118 0.02280489043933047 -0.03494741178493119 -5.558755607010145 -0.018250240763286445 -0.009803164261910103 -6.7187246414455455 -0.028342908270193267 -0.026859587035983068 -6.698098327552421 0.047560564444830485 -0.009914078726696174 0.018917465550507336 0.005637537370570099 -0.021707818957387628 8.049601618720818 3.5180952729270354 -19.25785822681177 -0.03313863445457451 10.411143243198946 0.05475616429194935 -5.642533262635638 -15.643269086775318 3.145973247940698 -0.02117521820250474 0.019092346911431506 -0.025607613002458087 -0.012593365418261712 4.732085267318553 -0.009978333920916203 12.46112358475127 -8.226546389493686 6.910802237808903 0.01732176671279646 46.39576067727055 -0.0070214592264166535 -4.348032626466406 -14.710146776415415 -3.806237280763646 0.017256014265270292 -0.045885972476851944 -0.03152589545449095 -0.0017797959004102633 -10.773985419597121 0.03767937081326658 
0.027555639093769676 -0.002282502545363378 -0.0030061478358408057 -0.0030217017684634213 0.015295793436763645 0.029811384868356362 -2.175379218947732 1.0597756673232621 -0.8088109609650792 -1.1166640498546447 3.8896635391394785 0.40309731222390227 -1.118360554584005 -1.8609019639924478 -1.7828475566415087 -0.09618837279725917 0.5901543339402384 -0.8703643000871977 -1.2140041985257854 13.182454258430829 3.052782467186015 -0.011340028457872034 -0.27508038871958623 6.432448637038104 -0.9044319068075782 -15.51853747453515 0.5677373892070767 -4.44837545624471 1.5268454164957639 -16.08932544764978 73.03981100643188 17.987147354241912 -6.304241859722407 4.9385220897747235 -2.117089063677111 41.67974286901053 20.110728076628533 -0.0577307200706695 -2.7481687543780806 4.527247342916529 -0.1292662979524097 -1.5821315273086782 -0.005044709274890435 0.01017635291619613 -56.20076901398049 -0.02164768980292133 -0.04047259075552957 -56.2216156573238 -38.73387947545157 -0.04139920321265257 0.018022409554823985 -0.04722874035877147 -0.028281949972913323 0.000611348980128572 0.023168234795776187 -0.012738345619047119 0.02501064652508915 -36.69170827631504 0.007180190492551641 -0.021452984222118943 -0.037494204240425294 0.03666565839322608 0.013725637549960305 0.04177861222268449 0.023178210735363382 0.01851301616763223 -19.78905447748523 0.008498904215220728 -0.021191892403769886 0.0034243132057220245 -0.046519105947586604 -0.04479958355497457 -0.013307208401419666 -0.0045584045727014594 -0.006206775497382857 24.039207094744913 0.00625140060806403 -0.027399113631133742 28.8874053508662 0.007486300296882313 0.038147328219699614 28.891533368553706 -0.04808156101503894 -0.023063048909902965 7.8144622483109645 1.6154153518747028 14.433062142463891 -70.37232525884038 19.772688997023174 -8.389527184476258 -0.15205680469328114 -18.03490817244784 -64.30345434594511 -6.800381408366782 -1.0145591895580002 1.6031714974871425 -0.5054235630187124 0.08773251119931666 -8.11354298655318 0.018176239631222994 0.03405580910489878 44.59219731248476 -0.03902178125604192 0.0053410616738605934 44.57953770112013 12.478178896083298 -0.007647458527911385 0.0029898102399157278 -0.02398746989027154 0.030176436552678192 0.042764574661704476 -0.04725685036142651 -0.002098945122835273 -0.010800643833184085 11.153565750220086 -0.02409295222497963 0.0008840448066902957 -0.010263854258648546 -0.02025345566959891 -0.04249735900486423 -0.0016086136248564052 -0.02787717128673192 -0.0355685677441198 4.74937440743744 -0.021338999714142038 -0.001061793974977271 -0.0346115882618588 -0.0069021421487867165 0.03248774802962369 -0.04543888219483844 -0.02659417894982651 0.009730904498704989 -5.613925479997055 0.013947150660137903 -0.04454281501670005 -6.749111781029427 0.01826372663969095 0.016079216586823118 -6.764703414239516 0.011582685122133262 0.02227191911892025 0.002686771769624201 -0.0025194157147784974 -0.024248296075742606 8.040554479090243 3.5005441321653987 -19.20822316253469 -0.04730432003266915 10.399699728085103 0.028147873317922577 -5.637576433932513 -15.704986294359253 3.228245448343864 -0.019996335185661532 -0.040905711436391136 -0.0059816452986173494 -0.020556957805119475 4.739309097422147 -0.028264879844587712 12.500407215358772 -8.208832409543568 6.930715875433269 0.03136845048298634 46.37742902659858 -0.030314767844145427 -4.332803472147901 -14.74915798123547 -3.8199948784726523 0.017310161683104747 0.007143995334825454 0.04332875497366057 0.00949113519825657 -10.695597386827256 -0.047025627346441154 
0.012267143454452087 -0.0027622859018697796 -0.0009245326590734961 0.03060400472099888 -0.035219422428696634 0.020651250356542958 -2.161113860108261 1.119827300185087 -0.8745996135812348 -1.12728427283254 3.9720027090035 0.3445336983581933 -1.1064093555506866 -1.8518666137801774 -1.8406929128650578 -0.0856009051653548 0.5310016611982995 -0.93062950287588 -1.2525335174743295 13.061361512875132 3.131973340816077 -0.10448475714276129 -0.2862047896640738 6.549814247872892 -0.8728417495781978 -15.606273896231622 0.5704497455014688 -4.390397600833723 1.540057642991985 -16.090242681655575 72.89399180449496 18.072272195450342 -6.352937443350097 5.2474769532617 -1.9377131884472503 42.241085680967046 20.11185751612804 -0.11051088263671643 -2.9397876383593147 4.480089844918599 -0.07857186208602233 -1.591978957501407 -0.0041018855547705095 -0.02429316933224426 -56.269681773955064 -0.02551071952672958 0.009997135665776627 -56.27626741873725 -38.759653223212695 -0.03427753823125243 0.014934891545033368 0.031704860584792625 0.00464428683186877 -0.009972667209095893 -0.037582000765994446 -0.01973995772735361 0.009512616091665005 -36.71141979288169 -0.007695510920273163 0.03031456655350541 0.024751663263940477 -0.030918857177633027 0.003043244041383172 0.04063068899508439 -0.014813181510919137 0.03465553576254852 -19.778579593084313 0.008006123408341897 0.013763300321563945 -0.03571420702334258 0.032684437640684724 0.027051158485595857 -0.021587515316409074 0.02164920649358433 0.0313409159868815 24.043351460401208 -0.0052300477230888 -0.030053675316400148 28.847216919786806 0.01918605439710784 0.023179069985087675 28.849975826569132 -0.044183925926756025 -0.005195850319006166 7.906409538558934 1.6399929387765415 14.46068602641734 -70.12578600659043 19.539636965555236 -8.976072021696412 0.9424406510133589 -18.3258184614142 -67.45270301864177 -6.347538883490312 -1.3028403870553606 1.4423460924007019 -0.5122399232361952 0.020335069218585654 -8.16445439857766 -0.02145881272846058 0.04840445788293692 44.53900219236627 0.03127043741527194 -0.004176026650515667 44.53774267579758 12.472274533366377 0.03882871317187053 -0.012762747951279104 0.008827031598875322 -0.013531468396230007 0.008322427365005994 -0.011412208203235354 0.03977315725673156 -0.03895184114284171 11.085847822167825 0.03872094536454407 0.03553786610357897 0.043187524214008996 0.026208341738173813 -0.001466296551016868 -0.03825933405685793 -0.016670690586916868 -0.014264866962745884 4.809012012785803 0.03665003263783541 0.0237079543079388 -0.021855682518898953 -0.04114399793514253 0.023471698875911717 0.004529121955742544 0.022952175652601648 0.030900854619950378 -5.568797625023244 -0.008477746510945532 0.04138835887353579 -6.709620155276845 -0.031879513675925474 -0.02918343255156917 -6.728545121503649 0.002989485023871846 0.00892748098611551 -0.019255055094148026 0.014827092278824016 0.019298329766786085 8.014630724354276 3.543717179175714 -19.209410498070906 0.004185038931558762 10.391622900909654 -0.009063727461228632 -5.575681765766759 -15.624627217355593 3.22536462530702 0.020801847886336194 -0.020922075282600257 -0.027897396490894514 0.0014848305953563436 4.702006205993882 -0.02721348420103194 12.479075341256925 -8.275048770390743 6.8672620737664865 0.0012652481989187214 46.4165228809065 0.008884996646209007 -4.356838026302668 -14.767842569625861 -3.850502464793067 0.019207187031579177 0.04569470189961021 0.04455540020605613 0.022579457192967105 -10.773758539664305 0.015921502363007715 
